<svg viewBox="0 0 80 80" xmlns="http://www.w3.org/2000/svg"><rect width="80" height="80" rx="8" fill="#0a1408"/><path d="M20 60 Q15 50 18 38 Q22 28 30 25 Q28 38 25 52" fill="#2a5a1a" opacity="0.7"/><path d="M60 60 Q65 50 62 38 Q58 28 50 25 Q52 38 55 52" fill="#2a5a1a" opacity="0.7"/><path d="M40 65 Q35 55 36 42 Q38 30 40 22 Q42 30 44 42 Q45 55 40 65" fill="#3a7020" opacity="0.8"/><ellipse cx="25" cy="35" rx="8" ry="5" fill="#4a8a28" transform="rotate(-20 25 35)"/><ellipse cx="55" cy="35" rx="7" ry="4" fill="#3a7820" transform="rotate(20 55 35)"/><ellipse cx="40" cy="28" rx="9" ry="5" fill="#4a9028" transform="rotate(5 40 28)"/><circle cx="22" cy="48" r="4" fill="#d0c040"/><path d="M22 44 Q24 46 22 48 Q20 46 22 44Z" fill="white"/><path d="M26 48 Q24 50 22 48 Q24 46 26 48Z" fill="white"/><path d="M22 52 Q20 50 22 48 Q24 50 22 52Z" fill="white"/><path d="M18 48 Q20 46 22 48 Q20 50 18 48Z" fill="white"/><text x="40" y="68" text-anchor="middle" font-family="serif" font-size="9" fill="#5aaa40" opacity="0.8">+ theo thể tạng</text></svg>