<svg viewBox="0 0 80 80" xmlns="http://www.w3.org/2000/svg"><rect width="80" height="80" rx="8" fill="#0a0f14"/><path d="M25 55 Q20 45 22 35 Q28 28 35 32 Q34 42 30 52" fill="#1a4a20"/><path d="M55 55 Q60 45 58 35 Q52 28 45 32 Q46 42 50 52" fill="#1a4a20"/><path d="M30 65 Q22 60 20 50 Q22 40 30 42 Q30 52 34 60" fill="#1e5524"/><path d="M50 65 Q58 60 60 50 Q58 40 50 42 Q50 52 46 60" fill="#1e5524"/><path d="M40 72 L40 55" stroke="#2a5a28" stroke-width="2" fill="none"/><path d="M40 65 Q32 62 27 57" stroke="#2a5a28" stroke-width="1.5" fill="none"/><path d="M40 65 Q48 62 53 57" stroke="#2a5a28" stroke-width="1.5" fill="none"/><g transform="translate(30,35)"><circle cx="0" cy="0" r="7" fill="#f5f0e0"/><path d="M0-7 Q3-4 0 0 Q-3-4 0-7Z" fill="white"/><path d="M7 0 Q4 3 0 0 Q4-3 7 0Z" fill="#f8f5ea"/><path d="M0 7 Q-3 4 0 0 Q3 4 0 7Z" fill="white"/><path d="M-7 0 Q-4-3 0 0 Q-4 3-7 0Z" fill="#f8f5ea"/><circle cx="0" cy="0" r="2.5" fill="#f0d060"/></g><g transform="translate(50,35)"><circle cx="0" cy="0" r="6" fill="#f5f0e0"/><path d="M0-6 Q2.5-3.5 0 0 Q-2.5-3.5 0-6Z" fill="white"/><path d="M6 0 Q3.5 2.5 0 0 Q3.5-2.5 6 0Z" fill="#f8f5ea"/><path d="M0 6 Q-2.5 3.5 0 0 Q2.5 3.5 0 6Z" fill="white"/><path d="M-6 0 Q-3.5-2.5 0 0 Q-3.5 2.5-6 0Z" fill="#f8f5ea"/><circle cx="0" cy="0" r="2" fill="#f0d060"/></g><g transform="translate(40,20)"><circle cx="0" cy="0" r="8" fill="#fffaf0"/><path d="M0-8 Q3-5 0 0 Q-3-5 0-8Z" fill="white"/><path d="M8 0 Q5 3 0 0 Q5-3 8 0Z" fill="#f5f0e0"/><path d="M0 8 Q-3 5 0 0 Q3 5 0 8Z" fill="white"/><path d="M-8 0 Q-5-3 0 0 Q-5 3-8 0Z" fill="#f5f0e0"/><path d="M5.5-5.5 Q2.5-2 0 0 Q2-3 5.5-5.5Z" fill="white"/><path d="M5.5 5.5 Q2.5 2 0 0 Q2 3 5.5 5.5Z" fill="white"/><path d="M-5.5 5.5 Q-2.5 2 0 0 Q-2 3-5.5 5.5Z" fill="white"/><path d="M-5.5-5.5 Q-2.5-2 0 0 Q-2-3-5.5-5.5Z" fill="white"/><circle cx="0" cy="0" r="3" fill="#f8e070"/></g></svg>