<svg viewBox="0 0 80 80" xmlns="http://www.w3.org/2000/svg"><rect width="80" height="80" rx="8" fill="#140a14"/><path d="M40 10 Q55 15 65 28 Q72 42 66 58 Q58 70 40 72 Q22 70 14 58 Q8 42 15 28 Q25 15 40 10Z" fill="#5a1a6a"/><path d="M40 10 Q43 12 46 10 Q49 14 52 12 Q56 16 58 15 Q62 20 62 20" stroke="#7a2a8a" stroke-width="1.2" fill="none"/><path d="M40 10 Q37 12 34 10 Q31 14 28 12 Q24 16 22 15 Q18 20 18 20" stroke="#7a2a8a" stroke-width="1.2" fill="none"/><path d="M40 10 L40 72" stroke="#8a3a9a" stroke-width="1.5" fill="none"/><path d="M40 25 Q52 30 60 38" stroke="#7a3a8a" stroke-width="1" fill="none"/><path d="M40 25 Q28 30 20 38" stroke="#7a3a8a" stroke-width="1" fill="none"/><path d="M40 40 Q54 44 62 52" stroke="#7a3a8a" stroke-width="1" fill="none"/><path d="M40 40 Q26 44 18 52" stroke="#7a3a8a" stroke-width="1" fill="none"/><path d="M40 55 Q50 58 56 64" stroke="#7a3a8a" stroke-width="0.8" fill="none"/><path d="M40 55 Q30 58 24 64" stroke="#7a3a8a" stroke-width="0.8" fill="none"/><path d="M40 72 L40 78" stroke="#5a2a5a" stroke-width="2.5" fill="none"/></svg>