<svg viewBox="0 0 80 80" xmlns="http://www.w3.org/2000/svg"><rect width="80" height="80" rx="8" fill="#0f1a0a"/><path d="M28 75 Q27 55 26 40 Q25 25 27 10" stroke="#6a8a30" stroke-width="3" fill="none" stroke-linecap="round"/><path d="M38 76 Q38 56 38 40 Q38 24 39 10" stroke="#7a9a38" stroke-width="3" fill="none" stroke-linecap="round"/><path d="M48 75 Q49 55 50 40 Q51 25 49 10" stroke="#6a8a30" stroke-width="2.5" fill="none" stroke-linecap="round"/><path d="M27 40 Q18 30 14 18 Q20 20 26 35" fill="#7aaa3a"/><path d="M27 40 Q22 50 18 62 Q15 58 22 46" fill="#6a9a2a"/><path d="M38 40 Q46 28 52 16 Q58 22 48 36" fill="#7aaa3a"/><path d="M38 40 Q32 30 28 18 Q24 22 32 36" fill="#6a9a2a"/><ellipse cx="28" cy="74" rx="5" ry="4" fill="#c8a040"/><ellipse cx="38" cy="75" rx="5" ry="4" fill="#d4aa50"/><ellipse cx="48" cy="74" rx="4" ry="3.5" fill="#c8a040"/><path d="M22 70 Q28 68 35 70 Q38 68 42 70 Q46 68 54 70" stroke="#e8d090" stroke-width="1.5" fill="none"/></svg>