<svg viewBox="0 0 80 80" xmlns="http://www.w3.org/2000/svg"><rect width="80" height="80" rx="8" fill="#081408"/><path d="M40 75 L40 12" stroke="#3a7030" stroke-width="2" fill="none"/><path d="M40 65 Q28 62 22 55 Q26 48 36 52 Q38 58 40 62" fill="#3a8a28"/><path d="M40 65 Q52 62 58 55 Q54 48 44 52 Q42 58 40 62" fill="#4a9a32"/><path d="M40 52 Q27 48 20 40 Q24 32 35 37 Q37 44 40 48" fill="#3a8a28"/><path d="M40 52 Q53 48 60 40 Q56 32 45 37 Q43 44 40 48" fill="#4a9a32"/><path d="M40 38 Q28 33 22 25 Q27 18 37 23 Q38 30 40 35" fill="#3a8a28"/><path d="M40 38 Q52 33 58 25 Q53 18 43 23 Q42 30 40 35" fill="#4a9a32"/><path d="M40 24 Q33 19 29 13 Q33 10 38 15 Q39 20 40 22" fill="#3a8a28"/><path d="M40 24 Q47 19 51 13 Q47 10 42 15 Q41 20 40 22" fill="#4a9a32"/><ellipse cx="40" cy="10" rx="4" ry="6" fill="#c060c0" opacity="0.8"/><circle cx="38" cy="9" r="1.2" fill="#e080e0"/><circle cx="42" cy="8" r="1" fill="#e080e0"/><circle cx="40" cy="12" r="1" fill="#d070d0"/></svg>