<svg viewBox="0 0 80 80" xmlns="http://www.w3.org/2000/svg"><rect width="80" height="80" rx="8" fill="#2a0a0a"/><path d="M40 75 L40 52" stroke="#2d5220" stroke-width="2" fill="none"/><path d="M40 65 Q33 60 28 55" stroke="#2d5220" stroke-width="1.2" fill="none"/><path d="M40 68 L36 64" stroke="#2d5220" stroke-width="1" fill="none"/><path d="M40 62 L44 58" stroke="#2d5220" stroke-width="1" fill="none"/><path d="M40 52 Q28 44 26 36 Q30 28 38 30 Q36 38 40 42" fill="#c41020"/><path d="M40 52 Q52 44 54 36 Q50 28 42 30 Q44 38 40 42" fill="#d41a28"/><path d="M40 52 Q30 38 28 28 Q34 22 40 26 Q38 34 40 38" fill="#b80e1c"/><path d="M40 52 Q50 38 52 28 Q46 22 40 26 Q42 34 40 38" fill="#c41824"/><path d="M40 48 Q32 42 32 34 Q36 28 40 32 Q38 40 40 44" fill="#e02030"/><path d="M40 48 Q48 42 48 34 Q44 28 40 32 Q42 40 40 44" fill="#d41828"/><ellipse cx="40" cy="35" rx="5" ry="6" fill="#f03040"/><ellipse cx="40" cy="34" rx="3" ry="4" fill="#ffd0a0" opacity="0.5"/></svg>