<svg viewBox="0 0 80 80" xmlns="http://www.w3.org/2000/svg"><rect width="80" height="80" rx="8" fill="#1a0a00"/><path d="M16 20 Q14 30 15 45 Q16 60 17 72" stroke="#8a4a10" stroke-width="6" fill="none" stroke-linecap="round"/><path d="M16 20 Q18 30 17 45 Q16 60 15 72" stroke="#a85c1a" stroke-width="3" fill="none" stroke-linecap="round"/><path d="M30 22 Q28 35 29 50 Q30 62 31 72" stroke="#7a3e0c" stroke-width="5" fill="none" stroke-linecap="round"/><path d="M30 22 Q32 35 31 50 Q30 62 29 72" stroke="#9a5018" stroke-width="2.5" fill="none" stroke-linecap="round"/><path d="M45 30 Q43 42 44 55 Q45 63 46 70" stroke="#8a4a10" stroke-width="5" fill="none" stroke-linecap="round"/><path d="M45 30 Q47 42 46 55 Q45 63 44 70" stroke="#a85c1a" stroke-width="2.5" fill="none" stroke-linecap="round"/><rect x="55" y="25" width="14" height="4" rx="2" fill="#8a4a10" transform="rotate(15 62 27)"/><rect x="57" y="38" width="12" height="3.5" rx="1.5" fill="#9a5418" transform="rotate(-10 63 40)"/><rect x="54" y="52" width="16" height="4" rx="2" fill="#7a3e0c" transform="rotate(8 62 54)"/></svg>