<svg viewBox="0 0 80 80" xmlns="http://www.w3.org/2000/svg"><rect width="80" height="80" rx="8" fill="#2a1e10"/><path d="M15 48 Q20 44 30 45 Q35 44 38 46 Q42 44 50 45 Q58 44 65 48 Q60 54 50 53 Q42 54 38 52 Q34 54 28 53 Q20 54 15 48Z" fill="#c8860a"/><path d="M25 45 Q22 35 26 28 Q30 22 34 28 Q32 35 30 44" fill="#d4920f"/><path d="M45 44 Q44 34 47 27 Q51 21 54 27 Q52 34 50 44" fill="#d4920f"/><path d="M15 48 Q10 44 12 38 Q16 35 18 41" fill="#ba780a"/><path d="M65 48 Q70 44 68 38 Q64 35 62 41" fill="#ba780a"/><path d="M20 50 Q25 47 35 48 Q45 47 55 48 Q60 50 62 52" stroke="#a06008" stroke-width="0.8" fill="none"/><ellipse cx="34" cy="27" rx="4" ry="5" fill="#e8c060" opacity="0.6"/><ellipse cx="52" cy="27" rx="3.5" ry="4.5" fill="#e8c060" opacity="0.6"/></svg>