<svg viewBox="0 0 80 80" xmlns="http://www.w3.org/2000/svg"><rect width="80" height="80" rx="8" fill="#0a1a0a"/><path d="M40 14 Q52 18 62 30 Q68 42 62 56 Q54 66 40 68 Q26 66 18 56 Q12 42 18 30 Q28 18 40 14Z" fill="#2d6b1a"/><path d="M40 14 L40 68" stroke="#4a8a30" stroke-width="1.2" fill="none"/><path d="M40 25 Q50 30 58 38" stroke="#4a8a30" stroke-width="0.8" fill="none"/><path d="M40 25 Q30 30 22 38" stroke="#4a8a30" stroke-width="0.8" fill="none"/><path d="M40 38 Q52 42 60 50" stroke="#4a8a30" stroke-width="0.8" fill="none"/><path d="M40 38 Q28 42 20 50" stroke="#4a8a30" stroke-width="0.8" fill="none"/><path d="M40 52 Q48 55 54 60" stroke="#4a8a30" stroke-width="0.7" fill="none"/><path d="M40 52 Q32 55 26 60" stroke="#4a8a30" stroke-width="0.7" fill="none"/><path d="M36 20 Q30 28 28 40 Q29 50 34 58" stroke="#5a9a40" stroke-width="1.5" fill="none" opacity="0.5"/><path d="M40 68 L40 76" stroke="#3d5a20" stroke-width="2" fill="none"/></svg>