<svg viewBox="0 0 80 80" xmlns="http://www.w3.org/2000/svg"><rect width="80" height="80" rx="8" fill="#1a2e1a"/><path d="M40 72 Q38 55 36 45 Q34 35 33 25" stroke="#4a7a3a" stroke-width="1.5" fill="none"/><path d="M36 45 Q28 42 22 44 Q25 38 33 40" fill="#3d6b2a"/><path d="M36 45 Q44 41 50 43 Q47 37 38 40" fill="#4a7a35"/><path d="M34 35 Q26 31 20 33 Q23 27 32 30" fill="#3d6b2a"/><path d="M34 35 Q42 31 48 33 Q45 27 36 30" fill="#4a7a35"/><path d="M33 25 Q27 20 21 22 Q24 15 32 20" fill="#3d6b2a"/><path d="M33 25 Q40 19 46 21 Q43 15 35 19" fill="#4a7a35"/><path d="M25 38 Q28 36 31 37" stroke="#7aaa60" stroke-width="0.8" fill="none"/><path d="M43 37 Q46 35 49 36" stroke="#7aaa60" stroke-width="0.8" fill="none"/><ellipse cx="33" cy="22" rx="4" ry="6" fill="#5a8a40" opacity="0.7"/><path d="M30 20 Q33 15 36 20" stroke="#6a9a50" stroke-width="0.8" fill="none"/></svg>