<svg viewBox="0 0 80 80" xmlns="http://www.w3.org/2000/svg"><rect width="80" height="80" rx="8" fill="#0a0806"/><g transform="translate(20,20) rotate(-20)"><path d="M0 0 Q2 8 0 18 Q-2 8 0 0Z" fill="#5a2a10"/><ellipse cx="0" cy="1.5" rx="4" ry="3.5" fill="#8a4a20"/><ellipse cx="0" cy="0" rx="3" ry="2.5" fill="#aa6030"/></g><g transform="translate(38,15) rotate(10)"><path d="M0 0 Q2 8 0 18 Q-2 8 0 0Z" fill="#5a2a10"/><ellipse cx="0" cy="1.5" rx="4.5" ry="4" fill="#7a3a18"/><ellipse cx="0" cy="0" rx="3.5" ry="3" fill="#9a5028"/></g><g transform="translate(58,18) rotate(-15)"><path d="M0 0 Q1.5 7 0 16 Q-1.5 7 0 0Z" fill="#5a2a10"/><ellipse cx="0" cy="1.5" rx="3.5" ry="3" fill="#8a4a20"/></g><g transform="translate(15,42) rotate(25)"><path d="M0 0 Q2 9 0 19 Q-2 9 0 0Z" fill="#4a2008"/><ellipse cx="0" cy="1.5" rx="4" ry="3.5" fill="#7a3a18"/></g><g transform="translate(40,42) rotate(-5)"><path d="M0 0 Q2.5 10 0 22 Q-2.5 10 0 0Z" fill="#5a2a10"/><ellipse cx="0" cy="2" rx="5" ry="4.5" fill="#8a4a20"/><ellipse cx="0" cy="0.5" rx="4" ry="3.5" fill="#b06030"/><ellipse cx="0" cy="-0.5" rx="2.5" ry="2" fill="#c87040" opacity="0.7"/></g><g transform="translate(62,40) rotate(15)"><path d="M0 0 Q2 8 0 17 Q-2 8 0 0Z" fill="#5a2a10"/><ellipse cx="0" cy="1.5" rx="4" ry="3.5" fill="#7a3a18"/></g><g transform="translate(28,60) rotate(-30)"><path d="M0 0 Q1.8 7.5 0 17 Q-1.8 7.5 0 0Z" fill="#4a2008"/><ellipse cx="0" cy="1.5" rx="3.5" ry="3" fill="#7a3a18"/></g><g transform="translate(55,62) rotate(20)"><path d="M0 0 Q2 8 0 18 Q-2 8 0 0Z" fill="#5a2a10"/><ellipse cx="0" cy="1.5" rx="4" ry="3.5" fill="#8a4a20"/></g></svg>