<svg viewBox="0 0 80 80" xmlns="http://www.w3.org/2000/svg"><rect width="80" height="80" rx="8" fill="#1a1000"/><path d="M12 42 Q16 36 26 35 Q32 34 36 37 Q40 35 46 36 Q56 35 64 38 Q68 44 64 50 Q56 54 46 52 Q40 54 36 51 Q30 54 22 52 Q14 50 12 42Z" fill="#d4820a"/><path d="M24 35 Q22 25 25 16 Q30 10 35 16 Q34 24 30 34" fill="#e08c10"/><path d="M46 35 Q46 25 48 16 Q53 10 57 16 Q56 25 52 34" fill="#e08c10"/><path d="M12 42 Q5 38 6 30 Q10 24 16 30 Q16 37 14 42" fill="#c87808"/><path d="M64 38 Q72 34 72 26 Q68 20 64 26 Q63 33 64 38" fill="#c87808"/><ellipse cx="36" cy="36" rx="6" ry="7" fill="#f0a820" opacity="0.7"/><ellipse cx="36" cy="36" rx="3" ry="4" fill="#f8c030" opacity="0.8"/><path d="M20 46 Q25 44 30 45 Q35 44 40 45 Q45 44 50 45 Q55 44 60 46" stroke="#b06806" stroke-width="0.8" fill="none"/></svg>